<svg width="32" height="32" fill="none" xmlns="http://www.w3.org/2000/svg"><path d="M10 8c.344 0 .656.281.719.625L10.78 9h13.125c.657 0 1.157.656.969 1.281l-1.688 6a.976.976 0 01-.968.719h-9.907l.282 1.5h9.656a.76.76 0 01.75.75.74.74 0 01-.75.75h-10.28a.736.736 0 01-.719-.594L9.375 9.5H7.75A.722.722 0 017 8.75.74.74 0 017.75 8H10zm1 14.5a1.5 1.5 0 011.5-1.5c.813 0 1.5.688 1.5 1.5a1.5 1.5 0 01-1.5 1.5 1.48 1.48 0 01-1.5-1.5zm12 0a1.5 1.5 0 01-1.5 1.5 1.48 1.48 0 01-1.5-1.5 1.5 1.5 0 011.5-1.5c.813 0 1.5.688 1.5 1.5z" fill="#4E4658"/></svg>