<svg width="32" height="32" fill="none" xmlns="http://www.w3.org/2000/svg"><path d="M16.502 11.25a4.373 4.373 0 00-4.372 4.373 4.349 4.349 0 004.372 4.372 4.373 4.373 0 004.373-4.372c0-2.396-1.977-4.373-4.373-4.373zm0 7.224a2.848 2.848 0 01-2.851-2.851c0-1.56 1.255-2.814 2.851-2.814a2.807 2.807 0 012.814 2.814c0 1.597-1.255 2.851-2.814 2.851zm5.551-7.376c0-.57-.456-1.026-1.026-1.026-.57 0-1.027.456-1.027 1.026 0 .57.456 1.027 1.027 1.027.57 0 1.026-.457 1.026-1.027zm2.89 1.027c-.076-1.369-.38-2.586-1.369-3.574-.988-.989-2.205-1.293-3.574-1.369-1.407-.076-5.627-.076-7.034 0-1.368.076-2.547.38-3.573 1.369-.989.988-1.293 2.205-1.37 3.574-.075 1.406-.075 5.627 0 7.034.077 1.368.381 2.547 1.37 3.573 1.026.989 2.205 1.293 3.573 1.37 1.407.075 5.627.075 7.034 0 1.369-.077 2.586-.381 3.574-1.37.989-1.026 1.293-2.205 1.369-3.573.076-1.407.076-5.627 0-7.034zm-1.825 8.516c-.266.76-.874 1.331-1.597 1.635-1.14.456-3.802.342-5.019.342-1.254 0-3.916.114-5.018-.342a2.883 2.883 0 01-1.635-1.635c-.456-1.102-.342-3.764-.342-5.018 0-1.217-.114-3.878.342-5.02a2.933 2.933 0 011.635-1.596c1.102-.456 3.764-.342 5.018-.342 1.217 0 3.879-.114 5.02.342.722.266 1.292.874 1.596 1.597.456 1.14.342 3.802.342 5.019 0 1.254.114 3.916-.342 5.018z" fill="#828282"/></svg>