<svg width="32" height="32" fill="none" xmlns="http://www.w3.org/2000/svg"><path d="M23.7 11.936a7.886 7.886 0 001.844-1.915 6.978 6.978 0 01-2.128.567 3.638 3.638 0 001.631-2.057 7.863 7.863 0 01-2.34.922 3.724 3.724 0 00-2.73-1.17 3.723 3.723 0 00-3.724 3.724c0 .283.035.567.106.85a10.803 10.803 0 01-7.695-3.9 3.622 3.622 0 00-.496 1.88c0 1.276.638 2.41 1.666 3.085-.603-.036-1.205-.178-1.702-.461v.035a3.728 3.728 0 002.979 3.653 4.153 4.153 0 01-.958.142c-.248 0-.46-.036-.709-.071.461 1.49 1.844 2.553 3.475 2.588a7.487 7.487 0 01-4.61 1.596c-.319 0-.602-.035-.886-.07C9.054 22.396 11.005 23 13.133 23 19.976 23 23.7 17.361 23.7 12.432v-.496z" fill="#828282"/></svg>