<svg width="172" height="53" fill="none" xmlns="http://www.w3.org/2000/svg"><path d="M70.84 13.477c.026 0 .04.04.04.121 0 .082-.014.122-.04.122-.423 0-.729.04-.92.122a.674.674 0 00-.388.425c-.067.19-.102.487-.102.892v11.388c0 1.405-.333 2.506-1 3.303-.667.81-1.62 1.216-2.858 1.216-.476 0-.858-.088-1.143-.264-.286-.175-.429-.412-.429-.709 0-.23.068-.419.204-.567.136-.149.334-.223.592-.223.272 0 .477.06.613.182.15.136.292.331.428.588.123.216.225.365.307.446a.5.5 0 00.367.142c.422 0 .735-.264.94-.79.217-.527.326-1.385.326-2.574V15.118c0-.405-.048-.702-.143-.891-.095-.19-.28-.318-.551-.385-.259-.081-.667-.122-1.225-.122-.027 0-.041-.04-.041-.122 0-.08.014-.121.04-.121l1.205.02c.626.027 1.13.04 1.511.04.354 0 .803-.013 1.347-.04l.92-.02z" fill="#4E4658"/><path d="M70.84 13.477c.026 0 .04.04.04.121 0 .082-.014.122-.04.122-.423 0-.729.04-.92.122a.674.674 0 00-.388.425c-.067.19-.102.487-.102.892v11.388c0 1.405-.333 2.506-1 3.303-.667.81-1.62 1.216-2.858 1.216-.476 0-.858-.088-1.143-.264-.286-.175-.429-.412-.429-.709 0-.23.068-.419.204-.567.136-.149.334-.223.592-.223.272 0 .477.06.613.182.15.136.292.331.428.588.123.216.225.365.307.446a.5.5 0 00.367.142c.422 0 .735-.264.94-.79.217-.527.326-1.385.326-2.574V15.118c0-.405-.048-.702-.143-.891-.095-.19-.28-.318-.551-.385-.259-.081-.667-.122-1.225-.122-.027 0-.041-.04-.041-.122 0-.08.014-.121.04-.121l1.205.02c.626.027 1.13.04 1.511.04.354 0 .803-.013 1.347-.04l.92-.02z" fill="#000" fill-opacity=".2"/><path d="M79.813 25.048c.055 0 .088.033.102.1.027.055.014.096-.04.122l-2.103.993a.407.407 0 01-.184.041c-.177 0-.347-.108-.51-.324-.15-.23-.252-.54-.307-.932l-1.163.628c-.776.405-1.423.608-1.94.608-.422 0-.755-.108-1-.325-.232-.23-.347-.526-.347-.891 0-.392.143-.696.428-.912.3-.216.844-.46 1.634-.73l2.347-.81v-1.641c0-.865-.109-1.48-.326-1.844-.204-.379-.504-.568-.899-.568-.421 0-.755.155-1 .466-.231.297-.374.69-.429 1.175-.054.595-.353.892-.898.892-.245 0-.435-.06-.572-.182-.136-.122-.204-.29-.204-.507 0-.324.211-.662.633-1.013a5.406 5.406 0 011.552-.892c.599-.243 1.136-.364 1.613-.364.571 0 1.034.189 1.388.567.354.365.53.919.53 1.662v3.586c0 .446.062.777.184.993.136.216.34.324.613.324.245 0 .537-.074.878-.222h.02zm-3.083-.304V22.9l-1.796.668c-.327.122-.565.264-.715.426a.808.808 0 00-.204.567c0 .284.082.507.245.669a.86.86 0 00.633.243c.3 0 .599-.08.898-.243l.94-.486z" fill="#4E4658"/><path d="M79.813 25.048c.055 0 .088.033.102.1.027.055.014.096-.04.122l-2.103.993a.407.407 0 01-.184.041c-.177 0-.347-.108-.51-.324-.15-.23-.252-.54-.307-.932l-1.163.628c-.776.405-1.423.608-1.94.608-.422 0-.755-.108-1-.325-.232-.23-.347-.526-.347-.891 0-.392.143-.696.428-.912.3-.216.844-.46 1.634-.73l2.347-.81v-1.641c0-.865-.109-1.48-.326-1.844-.204-.379-.504-.568-.899-.568-.421 0-.755.155-1 .466-.231.297-.374.69-.429 1.175-.054.595-.353.892-.898.892-.245 0-.435-.06-.572-.182-.136-.122-.204-.29-.204-.507 0-.324.211-.662.633-1.013a5.406 5.406 0 011.552-.892c.599-.243 1.136-.364 1.613-.364.571 0 1.034.189 1.388.567.354.365.53.919.53 1.662v3.586c0 .446.062.777.184.993.136.216.34.324.613.324.245 0 .537-.074.878-.222h.02zm-3.083-.304V22.9l-1.796.668c-.327.122-.565.264-.715.426a.808.808 0 00-.204.567c0 .284.082.507.245.669a.86.86 0 00.633.243c.3 0 .599-.08.898-.243l.94-.486z" fill="#000" fill-opacity=".2"/><path d="M84.63 26.385c-.885 0-1.634-.19-2.246-.567a3.756 3.756 0 01-1.348-1.5 4.47 4.47 0 01-.428-1.925c0-.864.224-1.614.673-2.25a4.362 4.362 0 011.736-1.479 4.82 4.82 0 012.164-.526c.612 0 1.17.128 1.674.385.503.243.755.553.755.932a.718.718 0 01-.225.527c-.15.148-.353.223-.612.223-.45 0-.79-.264-1.02-.79-.15-.311-.314-.534-.49-.67-.178-.135-.443-.202-.797-.202-.708 0-1.266.297-1.674.892-.395.58-.592 1.357-.592 2.33 0 1.121.272 2.04.817 2.756.544.716 1.381 1.074 2.51 1.074.75 0 1.43-.21 2.042-.628h.041c.04 0 .075.02.102.06.041.04.041.075 0 .102-.476.432-.96.75-1.45.952a4.236 4.236 0 01-1.633.304z" fill="#4E4658"/><path d="M84.63 26.385c-.885 0-1.634-.19-2.246-.567a3.756 3.756 0 01-1.348-1.5 4.47 4.47 0 01-.428-1.925c0-.864.224-1.614.673-2.25a4.362 4.362 0 011.736-1.479 4.82 4.82 0 012.164-.526c.612 0 1.17.128 1.674.385.503.243.755.553.755.932a.718.718 0 01-.225.527c-.15.148-.353.223-.612.223-.45 0-.79-.264-1.02-.79-.15-.311-.314-.534-.49-.67-.178-.135-.443-.202-.797-.202-.708 0-1.266.297-1.674.892-.395.58-.592 1.357-.592 2.33 0 1.121.272 2.04.817 2.756.544.716 1.381 1.074 2.51 1.074.75 0 1.43-.21 2.042-.628h.041c.04 0 .075.02.102.06.041.04.041.075 0 .102-.476.432-.96.75-1.45.952a4.236 4.236 0 01-1.633.304z" fill="#000" fill-opacity=".2"/><path d="M98.025 31.471c.028 0 .041.04.041.122 0 .08-.013.121-.04.121-.354 0-.626-.006-.817-.02l-1.143-.02-1.307.02c-.231.014-.558.02-.98.02-.027 0-.04-.04-.04-.121 0-.081.013-.122.04-.122.463 0 .803-.04 1.02-.121.232-.068.389-.196.47-.385.082-.19.123-.487.123-.892v-5.289a7.19 7.19 0 01-1.47 1.175c-.504.298-1.075.446-1.715.446-.585 0-1.13-.142-1.633-.425-.49-.297-.885-.73-1.184-1.297-.286-.567-.429-1.243-.429-2.026 0-1.027.218-1.885.654-2.574.435-.689.993-1.196 1.674-1.52a4.76 4.76 0 012.143-.506c.966 0 1.892.25 2.777.75l1.47-.527.04-.02c.041 0 .068.033.082.1.014.055 0 .088-.04.102-.341.189-.593.419-.756.689-.163.256-.245.594-.245 1.013v9.909c0 .405.027.703.081.892a.61.61 0 00.368.385c.177.08.45.121.816.121zm-5.042-5.856c.735 0 1.538-.392 2.409-1.175v-3.71c0-.716-.245-1.27-.735-1.661-.49-.405-1.082-.608-1.776-.608-1.552 0-2.327 1.162-2.327 3.485 0 1.175.217 2.08.653 2.716.435.634 1.027.952 1.776.952z" fill="#4E4658"/><path d="M98.025 31.471c.028 0 .041.04.041.122 0 .08-.013.121-.04.121-.354 0-.626-.006-.817-.02l-1.143-.02-1.307.02c-.231.014-.558.02-.98.02-.027 0-.04-.04-.04-.121 0-.081.013-.122.04-.122.463 0 .803-.04 1.02-.121.232-.068.389-.196.47-.385.082-.19.123-.487.123-.892v-5.289a7.19 7.19 0 01-1.47 1.175c-.504.298-1.075.446-1.715.446-.585 0-1.13-.142-1.633-.425-.49-.297-.885-.73-1.184-1.297-.286-.567-.429-1.243-.429-2.026 0-1.027.218-1.885.654-2.574.435-.689.993-1.196 1.674-1.52a4.76 4.76 0 012.143-.506c.966 0 1.892.25 2.777.75l1.47-.527.04-.02c.041 0 .068.033.082.1.014.055 0 .088-.04.102-.341.189-.593.419-.756.689-.163.256-.245.594-.245 1.013v9.909c0 .405.027.703.081.892a.61.61 0 00.368.385c.177.08.45.121.816.121zm-5.042-5.856c.735 0 1.538-.392 2.409-1.175v-3.71c0-.716-.245-1.27-.735-1.661-.49-.405-1.082-.608-1.776-.608-1.552 0-2.327 1.162-2.327 3.485 0 1.175.217 2.08.653 2.716.435.634 1.027.952 1.776.952z" fill="#000" fill-opacity=".2"/><path d="M108.298 24.926c.055 0 .096.034.123.101.027.054.02.095-.021.122l-2.531 1.195a.227.227 0 01-.102.02c-.123 0-.245-.155-.368-.465-.122-.325-.183-.743-.183-1.257-1.008 1.122-2.056 1.682-3.144 1.682-.695 0-1.246-.216-1.654-.648-.395-.446-.592-1.06-.592-1.844v-3.06c0-.513-.048-.878-.143-1.094-.095-.23-.252-.345-.47-.345-.19 0-.401.054-.632.162h-.041c-.041 0-.075-.034-.102-.101-.014-.068 0-.108.04-.122l2.41-1.114.081-.02a.27.27 0 01.163.06c.055.041.082.088.082.142v4.722c0 1.526.572 2.29 1.715 2.29a2.81 2.81 0 001.184-.284c.408-.19.776-.453 1.103-.79v-3.506c0-.513-.048-.878-.143-1.094-.096-.23-.252-.345-.47-.345-.177 0-.395.054-.653.162h-.041c-.041 0-.068-.034-.082-.101-.013-.068 0-.108.041-.122l2.409-1.114.082-.02c.054 0 .109.02.163.06.055.041.082.088.082.142v5.573c0 .46.047.79.143.993.109.202.286.304.53.304.218 0 .552-.095 1.001-.284h.02z" fill="#4E4658"/><path d="M108.298 24.926c.055 0 .096.034.123.101.027.054.02.095-.021.122l-2.531 1.195a.227.227 0 01-.102.02c-.123 0-.245-.155-.368-.465-.122-.325-.183-.743-.183-1.257-1.008 1.122-2.056 1.682-3.144 1.682-.695 0-1.246-.216-1.654-.648-.395-.446-.592-1.06-.592-1.844v-3.06c0-.513-.048-.878-.143-1.094-.095-.23-.252-.345-.47-.345-.19 0-.401.054-.632.162h-.041c-.041 0-.075-.034-.102-.101-.014-.068 0-.108.04-.122l2.41-1.114.081-.02a.27.27 0 01.163.06c.055.041.082.088.082.142v4.722c0 1.526.572 2.29 1.715 2.29a2.81 2.81 0 001.184-.284c.408-.19.776-.453 1.103-.79v-3.506c0-.513-.048-.878-.143-1.094-.096-.23-.252-.345-.47-.345-.177 0-.395.054-.653.162h-.041c-.041 0-.068-.034-.082-.101-.013-.068 0-.108.041-.122l2.409-1.114.082-.02c.054 0 .109.02.163.06.055.041.082.088.082.142v5.573c0 .46.047.79.143.993.109.202.286.304.53.304.218 0 .552-.095 1.001-.284h.02z" fill="#000" fill-opacity=".2"/><path d="M109.443 26.142c-.041 0-.061-.04-.061-.122 0-.08.02-.121.061-.121.49 0 .817-.088.98-.264.163-.189.245-.567.245-1.135v-3.728c0-.486-.048-.83-.143-1.034-.095-.216-.265-.324-.51-.324-.232 0-.524.088-.878.264h-.021c-.054 0-.095-.034-.122-.102-.027-.08-.014-.128.041-.142l2.776-1.276.082-.02c.041 0 .081.02.122.06.055.041.082.088.082.142 0 .095-.007.365-.02.81a51.39 51.39 0 00-.021 1.581v3.77c0 .567.075.945.225 1.134.163.176.496.264 1 .264.041 0 .061.04.061.121 0 .081-.02.122-.061.122-.327 0-.592-.007-.796-.02l-1.123-.02-1.123.02c-.204.013-.469.02-.796.02zm1.796-10.254c-.313 0-.564-.088-.755-.263-.177-.176-.265-.419-.265-.73 0-.297.088-.526.265-.689.191-.175.442-.263.755-.263.3 0 .531.088.695.263.177.163.265.392.265.69 0 .31-.088.553-.265.729-.164.175-.395.263-.695.263z" fill="#4E4658"/><path d="M109.443 26.142c-.041 0-.061-.04-.061-.122 0-.08.02-.121.061-.121.49 0 .817-.088.98-.264.163-.189.245-.567.245-1.135v-3.728c0-.486-.048-.83-.143-1.034-.095-.216-.265-.324-.51-.324-.232 0-.524.088-.878.264h-.021c-.054 0-.095-.034-.122-.102-.027-.08-.014-.128.041-.142l2.776-1.276.082-.02c.041 0 .081.02.122.06.055.041.082.088.082.142 0 .095-.007.365-.02.81a51.39 51.39 0 00-.021 1.581v3.77c0 .567.075.945.225 1.134.163.176.496.264 1 .264.041 0 .061.04.061.121 0 .081-.02.122-.061.122-.327 0-.592-.007-.796-.02l-1.123-.02-1.123.02c-.204.013-.469.02-.796.02zm1.796-10.254c-.313 0-.564-.088-.755-.263-.177-.176-.265-.419-.265-.73 0-.297.088-.526.265-.689.191-.175.442-.263.755-.263.3 0 .531.088.695.263.177.163.265.392.265.69 0 .31-.088.553-.265.729-.164.175-.395.263-.695.263z" fill="#000" fill-opacity=".2"/><path d="M125.692 19.009c1.088.095 1.966.46 2.633 1.094.667.635 1 1.412 1 2.33a3.47 3.47 0 01-.571 1.946c-.368.567-.878 1.02-1.531 1.358-.64.324-1.361.486-2.164.486-.436 0-.912-.02-1.429-.06a37.049 37.049 0 00-.674-.041c-.259-.014-.551-.02-.878-.02l-1.429.02c-.259.013-.606.02-1.041.02-.041 0-.061-.04-.061-.122 0-.08.02-.121.061-.121.476 0 .823-.034 1.041-.102a.824.824 0 00.49-.405c.095-.189.143-.486.143-.892v-9.382c0-.405-.048-.702-.143-.891-.082-.19-.238-.318-.47-.385-.217-.081-.564-.122-1.041-.122-.027 0-.041-.04-.041-.122 0-.08.014-.121.041-.121l1.021.02c.599.027 1.075.04 1.429.04.368 0 .769-.02 1.205-.06.149-.014.326-.027.53-.04.218-.014.45-.02.694-.02 1.171 0 2.062.242 2.675.729.612.472.919 1.114.919 1.925a2.75 2.75 0 01-.633 1.763c-.422.513-1.014.905-1.776 1.175zm-1.572-5.248c-.327 0-.579.033-.756.101-.163.068-.286.203-.367.405-.068.19-.102.487-.102.892v3.85l.898.02c.898 0 1.572-.256 2.021-.77.449-.513.674-1.189.674-2.026 0-.77-.198-1.371-.592-1.804-.381-.446-.973-.668-1.776-.668zm.612 12.057c.966 0 1.681-.25 2.144-.75.476-.5.714-1.216.714-2.148 0-1.027-.286-1.85-.857-2.472-.572-.622-1.382-.94-2.43-.953-.367-.013-.837 0-1.408.04V24.5c0 .338.047.602.143.79.095.176.272.312.53.406.259.081.647.122 1.164.122z" fill="#4E4658"/><path d="M125.692 19.009c1.088.095 1.966.46 2.633 1.094.667.635 1 1.412 1 2.33a3.47 3.47 0 01-.571 1.946c-.368.567-.878 1.02-1.531 1.358-.64.324-1.361.486-2.164.486-.436 0-.912-.02-1.429-.06a37.049 37.049 0 00-.674-.041c-.259-.014-.551-.02-.878-.02l-1.429.02c-.259.013-.606.02-1.041.02-.041 0-.061-.04-.061-.122 0-.08.02-.121.061-.121.476 0 .823-.034 1.041-.102a.824.824 0 00.49-.405c.095-.189.143-.486.143-.892v-9.382c0-.405-.048-.702-.143-.891-.082-.19-.238-.318-.47-.385-.217-.081-.564-.122-1.041-.122-.027 0-.041-.04-.041-.122 0-.08.014-.121.041-.121l1.021.02c.599.027 1.075.04 1.429.04.368 0 .769-.02 1.205-.06.149-.014.326-.027.53-.04.218-.014.45-.02.694-.02 1.171 0 2.062.242 2.675.729.612.472.919 1.114.919 1.925a2.75 2.75 0 01-.633 1.763c-.422.513-1.014.905-1.776 1.175zm-1.572-5.248c-.327 0-.579.033-.756.101-.163.068-.286.203-.367.405-.068.19-.102.487-.102.892v3.85l.898.02c.898 0 1.572-.256 2.021-.77.449-.513.674-1.189.674-2.026 0-.77-.198-1.371-.592-1.804-.381-.446-.973-.668-1.776-.668zm.612 12.057c.966 0 1.681-.25 2.144-.75.476-.5.714-1.216.714-2.148 0-1.027-.286-1.85-.857-2.472-.572-.622-1.382-.94-2.43-.953-.367-.013-.837 0-1.408.04V24.5c0 .338.047.602.143.79.095.176.272.312.53.406.259.081.647.122 1.164.122z" fill="#000" fill-opacity=".2"/><path d="M136.151 18.138c.313 0 .605.094.877.283.273.176.409.392.409.649a.754.754 0 01-.204.527c-.137.135-.32.202-.552.202a.889.889 0 01-.347-.06 1.938 1.938 0 01-.245-.163.718.718 0 00-.143-.121 1.26 1.26 0 00-.326-.243.622.622 0 00-.368-.102c-.163 0-.34.068-.53.203-.191.122-.477.399-.858.83V24.5c0 .392.048.69.143.892.109.19.299.324.572.405.272.068.68.102 1.225.102.04 0 .061.04.061.121 0 .081-.021.122-.061.122-.45 0-.81-.007-1.082-.02l-1.552-.02-1.143.02c-.191.013-.449.02-.776.02-.041 0-.061-.04-.061-.122 0-.08.02-.121.061-.121.49 0 .81-.088.959-.264.164-.189.245-.567.245-1.135v-3.95c0-.446-.054-.763-.163-.952-.095-.203-.265-.304-.51-.304-.259 0-.62.094-1.082.283h-.041c-.041 0-.075-.033-.102-.101-.014-.068 0-.108.041-.122l2.531-1.195a.286.286 0 01.123-.02c.136 0 .265.148.387.445.137.298.211.69.225 1.176.558-.622 1-1.047 1.327-1.277.34-.23.66-.344.96-.344z" fill="#4E4658"/><path d="M136.151 18.138c.313 0 .605.094.877.283.273.176.409.392.409.649a.754.754 0 01-.204.527c-.137.135-.32.202-.552.202a.889.889 0 01-.347-.06 1.938 1.938 0 01-.245-.163.718.718 0 00-.143-.121 1.26 1.26 0 00-.326-.243.622.622 0 00-.368-.102c-.163 0-.34.068-.53.203-.191.122-.477.399-.858.83V24.5c0 .392.048.69.143.892.109.19.299.324.572.405.272.068.68.102 1.225.102.04 0 .061.04.061.121 0 .081-.021.122-.061.122-.45 0-.81-.007-1.082-.02l-1.552-.02-1.143.02c-.191.013-.449.02-.776.02-.041 0-.061-.04-.061-.122 0-.08.02-.121.061-.121.49 0 .81-.088.959-.264.164-.189.245-.567.245-1.135v-3.95c0-.446-.054-.763-.163-.952-.095-.203-.265-.304-.51-.304-.259 0-.62.094-1.082.283h-.041c-.041 0-.075-.033-.102-.101-.014-.068 0-.108.041-.122l2.531-1.195a.286.286 0 01.123-.02c.136 0 .265.148.387.445.137.298.211.69.225 1.176.558-.622 1-1.047 1.327-1.277.34-.23.66-.344.96-.344z" fill="#000" fill-opacity=".2"/><path d="M138.91 26.142c-.041 0-.062-.04-.062-.122 0-.08.021-.121.062-.121.489 0 .816-.088.979-.264.164-.189.245-.567.245-1.135v-3.728c0-.486-.047-.83-.142-1.034-.096-.216-.266-.324-.511-.324-.231 0-.524.088-.878.264h-.02c-.055 0-.095-.034-.123-.102-.027-.08-.013-.128.041-.142l2.777-1.276.081-.02c.041 0 .082.02.123.06.054.041.081.088.081.142 0 .095-.006.365-.02.81-.014.447-.02.974-.02 1.581v3.77c0 .567.075.945.224 1.134.164.176.497.264 1.001.264.04 0 .061.04.061.121 0 .081-.021.122-.061.122-.327 0-.592-.007-.797-.02l-1.122-.02-1.123.02c-.204.013-.47.02-.796.02zm1.796-10.254c-.313 0-.565-.088-.755-.263-.177-.176-.266-.419-.266-.73 0-.297.089-.526.266-.689.19-.175.442-.263.755-.263.299 0 .531.088.694.263.177.163.266.392.266.69 0 .31-.089.553-.266.729-.163.175-.395.263-.694.263z" fill="#4E4658"/><path d="M138.91 26.142c-.041 0-.062-.04-.062-.122 0-.08.021-.121.062-.121.489 0 .816-.088.979-.264.164-.189.245-.567.245-1.135v-3.728c0-.486-.047-.83-.142-1.034-.096-.216-.266-.324-.511-.324-.231 0-.524.088-.878.264h-.02c-.055 0-.095-.034-.123-.102-.027-.08-.013-.128.041-.142l2.777-1.276.081-.02c.041 0 .082.02.123.06.054.041.081.088.081.142 0 .095-.006.365-.02.81-.014.447-.02.974-.02 1.581v3.77c0 .567.075.945.224 1.134.164.176.497.264 1.001.264.04 0 .061.04.061.121 0 .081-.021.122-.061.122-.327 0-.592-.007-.797-.02l-1.122-.02-1.123.02c-.204.013-.47.02-.796.02zm1.796-10.254c-.313 0-.565-.088-.755-.263-.177-.176-.266-.419-.266-.73 0-.297.089-.526.266-.689.19-.175.442-.263.755-.263.299 0 .531.088.694.263.177.163.266.392.266.69 0 .31-.089.553-.266.729-.163.175-.395.263-.694.263z" fill="#000" fill-opacity=".2"/><path d="M153.742 24.926c.041 0 .075.034.102.101.027.068.02.115-.021.142l-2.429 1.155a.852.852 0 01-.143.04c-.163 0-.306-.141-.429-.425-.122-.284-.19-.675-.204-1.175-.49.5-1 .898-1.531 1.195a3.573 3.573 0 01-1.776.446 2.916 2.916 0 01-1.592-.466c-.49-.324-.878-.783-1.164-1.378-.286-.594-.429-1.276-.429-2.046 0-.986.238-1.81.715-2.473a4.386 4.386 0 011.776-1.5 5.24 5.24 0 012.164-.485c.626 0 1.238.141 1.837.425v-4.377c0-.5-.047-.851-.143-1.054-.095-.216-.265-.324-.51-.324-.177 0-.47.095-.878.284h-.02c-.055 0-.096-.034-.123-.101-.027-.068-.02-.115.021-.142l2.715-1.297a.227.227 0 01.102-.02c.041 0 .088.02.143.06.068.04.102.088.102.142v12.22c0 .472.048.817.143 1.033.109.202.286.304.531.304.313 0 .646-.088 1-.264l.041-.02zm-5.533.669a2.66 2.66 0 001.266-.304 5.493 5.493 0 001.143-.892v-4.64a3.103 3.103 0 00-1-.932c-.368-.217-.803-.325-1.307-.325-.816 0-1.456.284-1.919.852-.462.567-.694 1.411-.694 2.532 0 1.135.232 2.04.694 2.716.477.662 1.082.993 1.817.993z" fill="#4E4658"/><path d="M153.742 24.926c.041 0 .075.034.102.101.027.068.02.115-.021.142l-2.429 1.155a.852.852 0 01-.143.04c-.163 0-.306-.141-.429-.425-.122-.284-.19-.675-.204-1.175-.49.5-1 .898-1.531 1.195a3.573 3.573 0 01-1.776.446 2.916 2.916 0 01-1.592-.466c-.49-.324-.878-.783-1.164-1.378-.286-.594-.429-1.276-.429-2.046 0-.986.238-1.81.715-2.473a4.386 4.386 0 011.776-1.5 5.24 5.24 0 012.164-.485c.626 0 1.238.141 1.837.425v-4.377c0-.5-.047-.851-.143-1.054-.095-.216-.265-.324-.51-.324-.177 0-.47.095-.878.284h-.02c-.055 0-.096-.034-.123-.101-.027-.068-.02-.115.021-.142l2.715-1.297a.227.227 0 01.102-.02c.041 0 .088.02.143.06.068.04.102.088.102.142v12.22c0 .472.048.817.143 1.033.109.202.286.304.531.304.313 0 .646-.088 1-.264l.041-.02zm-5.533.669a2.66 2.66 0 001.266-.304 5.493 5.493 0 001.143-.892v-4.64a3.103 3.103 0 00-1-.932c-.368-.217-.803-.325-1.307-.325-.816 0-1.456.284-1.919.852-.462.567-.694 1.411-.694 2.532 0 1.135.232 2.04.694 2.716.477.662 1.082.993 1.817.993z" fill="#000" fill-opacity=".2"/><path d="M158.615 25.412c.939.149 1.647.284 2.124.406.476.108.898.324 1.265.648.368.324.551.79.551 1.398 0 .649-.231 1.284-.694 1.905-.462.622-1.088 1.121-1.878 1.5a5.615 5.615 0 01-2.531.587c-.98 0-1.776-.23-2.389-.689-.599-.446-.898-1.02-.898-1.722 0-.514.177-1.027.531-1.54.367-.5.939-1.02 1.714-1.56-.898-.27-1.347-.737-1.347-1.399 0-.365.136-.73.408-1.094.273-.378.647-.71 1.123-.993-.544-.189-.973-.486-1.286-.892a2.29 2.29 0 01-.449-1.357c0-.73.32-1.317.959-1.763.654-.446 1.43-.669 2.328-.669.884 0 1.592.21 2.123.628.762-.446 1.497-.668 2.205-.668.041 0 .068.054.081.162.028.094.041.202.041.324 0 .19-.02.372-.061.547-.041.176-.088.25-.143.223-.531-.216-1-.324-1.408-.324-.082 0-.218.013-.409.04.368.406.551.878.551 1.419 0 .473-.142.905-.428 1.297-.286.378-.681.682-1.184.912a3.953 3.953 0 01-1.613.324 4 4 0 01-1.041-.122c-.436.297-.654.682-.654 1.155 0 .419.204.716.613.892.408.162 1.007.304 1.796.425zm-1.041-6.91c-.367 0-.66.136-.878.406-.217.27-.326.682-.326 1.236 0 .756.19 1.385.571 1.884.395.487.871.73 1.429.73.354 0 .647-.142.878-.426.245-.297.368-.75.368-1.357 0-.716-.204-1.304-.613-1.763-.408-.473-.884-.71-1.429-.71zm.776 12.746c.912 0 1.626-.243 2.144-.73.53-.486.796-1.08.796-1.782 0-.527-.164-.933-.49-1.216a2.716 2.716 0 00-1.143-.588 28.123 28.123 0 00-1.858-.324 9.477 9.477 0 01-.96-.162 3.49 3.49 0 00-.898.952c-.218.352-.327.784-.327 1.297 0 .797.245 1.419.735 1.864.504.46 1.171.69 2.001.69z" fill="#4E4658"/><path d="M158.615 25.412c.939.149 1.647.284 2.124.406.476.108.898.324 1.265.648.368.324.551.79.551 1.398 0 .649-.231 1.284-.694 1.905-.462.622-1.088 1.121-1.878 1.5a5.615 5.615 0 01-2.531.587c-.98 0-1.776-.23-2.389-.689-.599-.446-.898-1.02-.898-1.722 0-.514.177-1.027.531-1.54.367-.5.939-1.02 1.714-1.56-.898-.27-1.347-.737-1.347-1.399 0-.365.136-.73.408-1.094.273-.378.647-.71 1.123-.993-.544-.189-.973-.486-1.286-.892a2.29 2.29 0 01-.449-1.357c0-.73.32-1.317.959-1.763.654-.446 1.43-.669 2.328-.669.884 0 1.592.21 2.123.628.762-.446 1.497-.668 2.205-.668.041 0 .068.054.081.162.028.094.041.202.041.324 0 .19-.02.372-.061.547-.041.176-.088.25-.143.223-.531-.216-1-.324-1.408-.324-.082 0-.218.013-.409.04.368.406.551.878.551 1.419 0 .473-.142.905-.428 1.297-.286.378-.681.682-1.184.912a3.953 3.953 0 01-1.613.324 4 4 0 01-1.041-.122c-.436.297-.654.682-.654 1.155 0 .419.204.716.613.892.408.162 1.007.304 1.796.425zm-1.041-6.91c-.367 0-.66.136-.878.406-.217.27-.326.682-.326 1.236 0 .756.19 1.385.571 1.884.395.487.871.73 1.429.73.354 0 .647-.142.878-.426.245-.297.368-.75.368-1.357 0-.716-.204-1.304-.613-1.763-.408-.473-.884-.71-1.429-.71zm.776 12.746c.912 0 1.626-.243 2.144-.73.53-.486.796-1.08.796-1.782 0-.527-.164-.933-.49-1.216a2.716 2.716 0 00-1.143-.588 28.123 28.123 0 00-1.858-.324 9.477 9.477 0 01-.96-.162 3.49 3.49 0 00-.898.952c-.218.352-.327.784-.327 1.297 0 .797.245 1.419.735 1.864.504.46 1.171.69 2.001.69z" fill="#000" fill-opacity=".2"/><path d="M170.165 24.946c.041 0 .075.027.102.081.041.04.048.081.02.122-.476.432-.966.75-1.469.952-.49.19-1.021.284-1.593.284-.816 0-1.524-.176-2.123-.527a3.709 3.709 0 01-1.347-1.439 4.212 4.212 0 01-.45-1.925c0-.797.191-1.526.572-2.188a4.198 4.198 0 011.613-1.58 4.57 4.57 0 012.286-.588c.763 0 1.355.182 1.776.547.422.351.633.837.633 1.459 0 .338-.074.506-.224.506h-.98l-4.022.04a5.173 5.173 0 00-.082.994c0 1.162.279 2.1.837 2.816.572.716 1.355 1.075 2.348 1.075.79 0 1.484-.21 2.083-.629h.02zm-3.103-6.403c-.504 0-.932.162-1.286.486-.354.311-.606.757-.756 1.338l3.512-.081c-.014-.54-.15-.966-.409-1.277-.258-.31-.612-.466-1.061-.466z" fill="#4E4658"/><path d="M170.165 24.946c.041 0 .075.027.102.081.041.04.048.081.02.122-.476.432-.966.75-1.469.952-.49.19-1.021.284-1.593.284-.816 0-1.524-.176-2.123-.527a3.709 3.709 0 01-1.347-1.439 4.212 4.212 0 01-.45-1.925c0-.797.191-1.526.572-2.188a4.198 4.198 0 011.613-1.58 4.57 4.57 0 012.286-.588c.763 0 1.355.182 1.776.547.422.351.633.837.633 1.459 0 .338-.074.506-.224.506h-.98l-4.022.04a5.173 5.173 0 00-.082.994c0 1.162.279 2.1.837 2.816.572.716 1.355 1.075 2.348 1.075.79 0 1.484-.21 2.083-.629h.02zm-3.103-6.403c-.504 0-.932.162-1.286.486-.354.311-.606.757-.756 1.338l3.512-.081c-.014-.54-.15-.966-.409-1.277-.258-.31-.612-.466-1.061-.466z" fill="#000" fill-opacity=".2"/><path d="M66.787 41.125a3.91 3.91 0 01-1.187-.18c-.374-.127-.668-.291-.883-.494L65 39.92c.203.184.466.336.789.456.329.114.667.171 1.016.171.468 0 .813-.082 1.035-.247.228-.164.342-.376.342-.636a.636.636 0 00-.19-.484 1.192 1.192 0 00-.475-.285 9.237 9.237 0 00-.77-.209 7.727 7.727 0 01-.977-.285 1.64 1.64 0 01-.637-.437c-.17-.202-.256-.471-.256-.807 0-.45.18-.813.541-1.092.361-.285.864-.427 1.51-.427.323 0 .636.041.94.123.31.083.573.2.788.352l-.247.55c-.411-.29-.911-.436-1.5-.436-.45 0-.788.085-1.016.256a.762.762 0 00-.342.646c0 .202.063.367.19.493.127.12.285.213.475.276.196.063.459.133.788.209.399.095.722.19.969.285.246.088.455.23.626.427.178.196.266.459.266.788 0 .456-.183.823-.55 1.102-.361.278-.871.417-1.53.417zm5.672-5.422c.697 0 1.244.165 1.643.494.4.323.599.776.599 1.358 0 .582-.203 1.038-.608 1.367-.4.323-.944.485-1.633.485h-1.406v1.661h-.683v-5.364h2.089zm-.037 3.134c.512 0 .905-.11 1.177-.332.278-.222.418-.538.418-.95 0-.411-.136-.728-.408-.95-.273-.221-.668-.332-1.187-.332h-1.368v2.564h1.368zm3.904-3.134h.684v5.365h-.684v-5.364zm6.45 5.365l-1.216-1.69a5.328 5.328 0 01-.37.02h-1.406v1.67h-.683v-5.364h2.089c.696 0 1.244.164 1.642.493.4.323.599.776.599 1.358 0 .412-.108.763-.323 1.054-.21.291-.51.503-.902.636l1.31 1.823h-.74zm-1.624-2.231c.513 0 .905-.11 1.177-.332.279-.222.418-.538.418-.95 0-.411-.136-.728-.408-.95-.272-.221-.668-.332-1.187-.332h-1.368v2.564h1.368zm3.97-3.134h.683v5.365h-.684v-5.364zm3.704.57h-1.89v-.57H91.4v.57h-1.89v4.795h-.684v-4.795zm5.921 4.852c-.715 0-1.275-.202-1.68-.607-.4-.406-.599-.982-.599-1.729v-3.086h.684v3.067c0 .583.136 1.023.408 1.32.272.298.668.447 1.187.447.52 0 .915-.15 1.187-.447.279-.297.418-.737.418-1.32v-3.067h.664v3.086c0 .747-.199 1.323-.598 1.729-.399.405-.956.607-1.67.607zm7.503-1.443h-3.01l-.627 1.386h-.684l2.478-5.364h.675l2.478 5.364h-.684l-.626-1.386zm-.247-.55l-1.254-2.783-1.263 2.782h2.517zm2.674-3.428h.684v4.795h2.991v.57h-3.675v-5.366zm9.512 0c.696 0 1.244.164 1.643.493.398.323.598.776.598 1.358 0 .582-.203 1.038-.608 1.367-.399.323-.943.485-1.633.485h-1.406v1.661h-.683v-5.364h2.089zm-.038 3.133c.513 0 .905-.11 1.177-.332.279-.222.418-.538.418-.95 0-.411-.136-.728-.408-.95-.272-.221-.668-.332-1.187-.332h-1.368v2.564h1.368zm5.385 2.288a3.9 3.9 0 01-1.186-.18c-.374-.127-.668-.291-.884-.494l.285-.532c.203.184.466.336.788.456.33.114.668.171 1.016.171.469 0 .814-.082 1.035-.247.228-.164.342-.376.342-.636a.635.635 0 00-.19-.484 1.184 1.184 0 00-.474-.285 9.332 9.332 0 00-.769-.209 7.712 7.712 0 01-.979-.285 1.65 1.65 0 01-.636-.437c-.171-.202-.256-.471-.256-.807 0-.45.18-.813.541-1.092.361-.285.864-.427 1.51-.427.323 0 .636.041.94.123.31.083.573.2.788.352l-.247.55c-.411-.29-.911-.436-1.5-.436-.45 0-.788.085-1.016.256a.761.761 0 00-.342.646c0 .202.063.367.19.493.127.12.285.213.475.276.196.063.459.133.788.209.399.095.722.19.968.285.247.088.456.23.627.427.177.196.266.459.266.788 0 .456-.184.823-.551 1.102-.361.278-.87.417-1.529.417zm5.42-1.804v1.747h-.674v-1.766l-2.222-3.599h.731l1.843 2.963 1.842-2.962h.702l-2.222 3.617zm5.426 1.804a3.044 3.044 0 01-1.462-.351 2.72 2.72 0 01-1.035-.988 2.709 2.709 0 01-.37-1.405c0-.513.123-.978.37-1.396a2.72 2.72 0 011.035-.987 2.98 2.98 0 011.462-.361c.88 0 1.561.266 2.042.798l-.437.446c-.424-.43-.953-.646-1.586-.646-.418 0-.794.095-1.13.285-.335.184-.598.44-.788.77-.19.322-.285.686-.285 1.091 0 .405.095.773.285 1.102.19.323.453.579.788.769.336.183.712.275 1.13.275.646 0 1.174-.215 1.586-.646l.437.447c-.488.531-1.168.797-2.042.797zm3.481-5.422h.683v2.355h3.257v-2.355h.684v5.365h-.684v-2.43h-3.257v2.43h-.683v-5.364zm9.051 5.422a3.097 3.097 0 01-1.471-.351 2.72 2.72 0 01-1.035-.988 2.71 2.71 0 01-.371-1.405c0-.513.124-.978.371-1.396a2.72 2.72 0 011.035-.987c.443-.24.933-.361 1.471-.361a3 3 0 011.472.36c.437.235.779.564 1.026.988.253.418.38.883.38 1.396 0 .52-.127.988-.38 1.405a2.653 2.653 0 01-1.026.988 3.064 3.064 0 01-1.472.351zm0-.588c.412 0 .785-.092 1.121-.276.335-.19.598-.446.788-.769.19-.329.285-.696.285-1.101a2.13 2.13 0 00-.285-1.102 2.005 2.005 0 00-.788-.769 2.237 2.237 0 00-1.121-.285c-.411 0-.785.095-1.12.285-.336.184-.598.44-.788.77a2.13 2.13 0 00-.285 1.1c0 .406.095.773.285 1.102.19.323.452.58.788.77a2.3 2.3 0 001.12.275zm4.427-4.834h.683V40.5h2.991v.57h-3.674v-5.366zm7.048 5.422a3.097 3.097 0 01-1.471-.351 2.72 2.72 0 01-1.035-.988 2.71 2.71 0 01-.371-1.405c0-.513.124-.978.371-1.396a2.72 2.72 0 011.035-.987c.443-.24.933-.361 1.471-.361a3 3 0 011.472.36c.437.235.779.564 1.026.988.253.418.379.883.379 1.396 0 .52-.126.988-.379 1.405a2.653 2.653 0 01-1.026.988 3.064 3.064 0 01-1.472.351zm0-.588c.412 0 .785-.092 1.121-.276.335-.19.598-.446.788-.769.19-.329.285-.696.285-1.101a2.13 2.13 0 00-.285-1.102 2.005 2.005 0 00-.788-.769 2.237 2.237 0 00-1.121-.285c-.411 0-.785.095-1.12.285-.336.184-.598.44-.788.77a2.13 2.13 0 00-.285 1.1c0 .406.095.773.285 1.102.19.323.452.58.788.77a2.3 2.3 0 001.12.275zm8.149-2.156h.655v2.06a2.571 2.571 0 01-.902.513 3.516 3.516 0 01-1.102.171 3.14 3.14 0 01-1.49-.351 2.66 2.66 0 01-1.425-2.393c0-.513.124-.978.371-1.396a2.72 2.72 0 011.035-.987 3.06 3.06 0 011.481-.361c.899 0 1.589.266 2.07.798l-.437.446c-.43-.43-.971-.646-1.623-.646a2.25 2.25 0 00-1.13.285 2.064 2.064 0 00-1.083 1.861c0 .405.095.773.285 1.102.196.323.462.579.798.769.341.183.728.275 1.158.275.519 0 .965-.127 1.339-.38v-1.766zm4.542.94v1.747h-.674v-1.766l-2.222-3.599h.731l1.842 2.963 1.842-2.962h.703l-2.222 3.617z" fill="#4E4658"/><path d="M31.363 42.597l3.644 9.372m-14.129-9.897L17.348 52m8.308-40.58L25.342 1m10.34 13.996l6.415-8.263m-.469 17.456l9.623-1.93M40.064 35.342l8.377 4.841m-34.938-5.529l-9.631 5.612m8.058-15.765L1 22.352m16.064-6.654L10.1 6.793" stroke="#4E4658" stroke-width=".943" stroke-miterlimit="10" stroke-linecap="round"/><path d="M29.422 15.374a.407.407 0 01-.332-.171.435.435 0 01-.067-.376l.138-.516a.433.433 0 01.197-.265.41.41 0 01.575.17.436.436 0 01.028.333l-.139.517a.43.43 0 01-.15.222.41.41 0 01-.25.086zm.425-1.51a.407.407 0 01-.328-.173.435.435 0 01-.066-.373l.278-1c.037-.1.11-.18.203-.229a.406.406 0 01.301-.027.432.432 0 01.292.495l-.277.999a.428.428 0 01-.151.223.408.408 0 01-.252.085zm.555-1.983a.407.407 0 01-.329-.174.435.435 0 01-.065-.374l.278-.999a.425.425 0 01.2-.246.406.406 0 01.312-.033c.104.03.192.102.246.199a.44.44 0 01.041.319l-.277.998a.43.43 0 01-.15.224.409.409 0 01-.251.086h-.005zm.556-1.983a.407.407 0 01-.33-.174.435.435 0 01-.065-.374l.278-1a.425.425 0 01.201-.245.406.406 0 01.311-.034.418.418 0 01.246.2.438.438 0 01.041.318l-.277.999a.428.428 0 01-.149.223.409.409 0 01-.248.087h-.008zm.566-1.985a.407.407 0 01-.336-.169.434.434 0 01-.07-.378l.14-.516a.432.432 0 01.196-.265.408.408 0 01.574.17.438.438 0 01.029.333l-.139.517a.428.428 0 01-.148.22.409.409 0 01-.246.088zM36.17 20.61a.409.409 0 01-.248-.084.438.438 0 01.018-.7l.436-.297a.412.412 0 01.318-.073.41.41 0 01.271.185.437.437 0 01-.13.601l-.435.297a.407.407 0 01-.23.071zm1.289-.875a.408.408 0 01-.249-.084.439.439 0 01.018-.7l.851-.58a.406.406 0 01.308-.052.42.42 0 01.257.181.437.437 0 01-.106.585l-.85.58a.408.408 0 01-.23.07zm1.703-1.157a.409.409 0 01-.249-.084.438.438 0 01.018-.7l.851-.58a.407.407 0 01.565.129.438.438 0 01-.106.585l-.85.579a.408.408 0 01-.23.07v.001zm1.703-1.157a.409.409 0 01-.249-.084.439.439 0 01.018-.7l.851-.58a.407.407 0 01.565.129.437.437 0 01-.105.584l-.851.58a.407.407 0 01-.23.07v.001zm1.701-1.154a.41.41 0 01-.248-.084.439.439 0 01.018-.7l.435-.298a.41.41 0 01.59.113.436.436 0 01-.13.6l-.436.298a.409.409 0 01-.229.071zm-3.561 12.874h-.05l-.52-.064a.417.417 0 01-.279-.162.44.44 0 01.07-.605.411.411 0 01.31-.09l.519.065a.41.41 0 01.287.144.436.436 0 01-.035.605.41.41 0 01-.302.107zm5.755.715h-.05l-.96-.12a.417.417 0 01-.28-.162.44.44 0 01.071-.605.412.412 0 01.31-.09l.958.12c.11.007.214.06.288.144a.436.436 0 01-.036.605.41.41 0 01-.302.108zm-1.919-.239h-.05l-.959-.12a.417.417 0 01-.28-.161.44.44 0 01.071-.605.412.412 0 01.31-.09l.958.12a.406.406 0 01.287.144.43.43 0 01.105.31.437.437 0 01-.14.295.414.414 0 01-.302.107zm-1.918-.238h-.05l-.959-.12a.417.417 0 01-.28-.161.44.44 0 01.071-.606.41.41 0 01.309-.089l.96.119c.11.007.213.058.286.143a.436.436 0 01-.035.605.41.41 0 01-.302.108v.001zm5.316.661h-.05l-.52-.064a.416.416 0 01-.28-.162.44.44 0 01.072-.605.411.411 0 01.309-.09l.519.065a.406.406 0 01.287.143.43.43 0 01.104.31.44.44 0 01-.14.296.414.414 0 01-.301.107zm-11.246 7.486a.407.407 0 01-.305-.142l-.355-.396a.436.436 0 01.023-.605.41.41 0 01.589.025l.355.395a.433.433 0 01.071.458.426.426 0 01-.152.184.409.409 0 01-.224.071l-.002.01zm3.845 4.281a.406.406 0 01-.305-.143l-.641-.713a.435.435 0 01.023-.605.41.41 0 01.589.024l.64.713a.434.434 0 01-.08.643.408.408 0 01-.224.07l-.002.01zm-1.28-1.427a.408.408 0 01-.308-.143l-.64-.713a.428.428 0 01-.134-.317.438.438 0 01.138-.315.413.413 0 01.319-.108.408.408 0 01.292.17l.642.712a.434.434 0 01-.081.643.409.409 0 01-.225.07h-.004zm-1.282-1.427a.408.408 0 01-.305-.143l-.642-.713a.435.435 0 01.024-.605.41.41 0 01.588.024l.642.714a.433.433 0 01.07.458.426.426 0 01-.151.184.409.409 0 01-.225.071l-.001.01zm3.559 3.964a.406.406 0 01-.306-.143l-.36-.397a.43.43 0 01-.11-.307.44.44 0 01.133-.297.414.414 0 01.3-.114.41.41 0 01.289.138l.355.395a.433.433 0 01.07.458.425.425 0 01-.15.184.409.409 0 01-.225.072l.004.01zM26.348 40.98a.41.41 0 01-.285-.116.433.433 0 01-.131-.284l-.035-.537a.437.437 0 01.102-.31.41.41 0 01.589-.041c.083.074.134.18.142.293l.034.536a.44.44 0 01-.101.311.418.418 0 01-.286.146l-.029.001zm.393 5.953a.41.41 0 01-.285-.115.433.433 0 01-.131-.284l-.066-.999a.437.437 0 01.102-.311.41.41 0 01.589-.041c.084.074.135.18.142.294l.065.998a.437.437 0 01-.101.311.418.418 0 01-.286.146l-.029.001zm-.13-1.987a.41.41 0 01-.285-.115.433.433 0 01-.132-.285l-.065-.998a.44.44 0 01.102-.312.42.42 0 01.287-.145.405.405 0 01.302.105.427.427 0 01.142.294l.065 1a.441.441 0 01-.102.31.418.418 0 01-.285.146h-.03zm-.13-1.985a.41.41 0 01-.286-.115.433.433 0 01-.131-.284l-.066-1a.437.437 0 01.103-.31.41.41 0 01.589-.04c.083.074.134.18.141.294l.066.999a.44.44 0 01-.102.31.417.417 0 01-.286.146h-.029zm.361 5.502a.41.41 0 01-.285-.115.433.433 0 01-.131-.285l-.035-.536a.44.44 0 01.102-.311.419.419 0 01.286-.146.407.407 0 01.303.104.429.429 0 01.142.294l.035.537a.441.441 0 01-.102.31.417.417 0 01-.286.147h-.029zM18.17 37.826a.408.408 0 01-.22-.065.438.438 0 01-.107-.627l.322-.428a.41.41 0 01.588-.07.439.439 0 01.068.605l-.322.428a.418.418 0 01-.329.157zm-3.77 4.961a.409.409 0 01-.223-.065.438.438 0 01-.105-.63l.629-.826a.422.422 0 01.277-.161.406.406 0 01.308.088.425.425 0 01.157.285.44.44 0 01-.086.316l-.628.826a.419.419 0 01-.33.167zm1.257-1.654a.409.409 0 01-.22-.065.438.438 0 01-.107-.627l.628-.826a.419.419 0 01.278-.161.406.406 0 01.307.088.424.424 0 01.157.285.44.44 0 01-.085.316l-.625.826a.42.42 0 01-.333.164zm1.258-1.653a.408.408 0 01-.221-.066.425.425 0 01-.193-.407.434.434 0 01.086-.22l.629-.825a.408.408 0 01.585-.073.437.437 0 01.072.601l-.634.826a.419.419 0 01-.326.164h.002zm-3.467 4.557a.41.41 0 01-.374-.24.437.437 0 01.047-.452l.322-.428a.408.408 0 01.585-.074.436.436 0 01.072.601l-.323.429a.417.417 0 01-.329.164zm.71-14.007a.41.41 0 01-.28-.11.433.433 0 01-.056-.572.415.415 0 01.252-.166l.512-.108a.408.408 0 01.313.062.438.438 0 01.119.593.416.416 0 01-.264.184l-.512.108a.402.402 0 01-.085.009zm-6.525 1.38a.41.41 0 01-.28-.11.437.437 0 01-.056-.572.415.415 0 01.253-.166l1.084-.23a.41.41 0 01.313.062.438.438 0 01.119.593.416.416 0 01-.264.184l-1.089.23a.403.403 0 01-.08.009zm2.175-.46a.41.41 0 01-.28-.11.437.437 0 01-.056-.572.415.415 0 01.253-.165l1.088-.23a.406.406 0 01.428.18.435.435 0 01-.26.659l-1.089.23a.401.401 0 01-.084.007v.001zm2.175-.46a.41.41 0 01-.28-.11.433.433 0 01-.056-.571.416.416 0 01.252-.166l1.089-.23a.407.407 0 01.295.076.438.438 0 01.115.57.418.418 0 01-.242.19l-1.089.23a.403.403 0 01-.084.01v.002zm-5.95 1.258a.41.41 0 01-.28-.11.433.433 0 01-.056-.572.416.416 0 01.252-.166l.512-.108a.404.404 0 01.314.062.421.421 0 01.178.271.44.44 0 01-.174.44.41.41 0 01-.15.066l-.512.108a.402.402 0 01-.084.009zm9.867-9.917a.408.408 0 01-.2-.052l-.46-.259a.419.419 0 01-.199-.255.439.439 0 01.14-.454.413.413 0 01.306-.091.41.41 0 01.155.05l.459.258a.424.424 0 01.182.205.44.44 0 01-.128.509.41.41 0 01-.255.09zm-1.437-.813a.407.407 0 01-.2-.053l-.978-.552a.426.426 0 01-.2-.256.438.438 0 01.035-.325.419.419 0 01.25-.205.406.406 0 01.316.036l.979.552a.424.424 0 01.181.205.44.44 0 01-.127.509.41.41 0 01-.256.09zm-1.958-1.104a.406.406 0 01-.2-.053l-.98-.552a.42.42 0 01-.2-.256.44.44 0 01.14-.454.414.414 0 01.306-.091.41.41 0 01.155.05l.98.552a.424.424 0 01.182.206.44.44 0 01-.127.508.41.41 0 01-.256.09zm-1.959-1.105a.409.409 0 01-.2-.052l-.978-.553a.426.426 0 01-.2-.255.439.439 0 01.036-.326.419.419 0 01.248-.205.406.406 0 01.317.036l.979.552a.424.424 0 01.182.205.44.44 0 01-.128.509.41.41 0 01-.256.09zm-1.959-1.104a.408.408 0 01-.2-.053l-.46-.258a.42.42 0 01-.199-.256.44.44 0 01.14-.453.412.412 0 01.306-.092.407.407 0 01.154.05l.46.259a.424.424 0 01.182.205.44.44 0 01-.128.509.41.41 0 01-.255.09zm13.304-1.254a.408.408 0 01-.236-.076.426.426 0 01-.153-.2l-.186-.502a.44.44 0 01.104-.464.416.416 0 01.297-.116.407.407 0 01.292.134c.037.04.067.088.086.141l.186.502a.44.44 0 01-.046.396.42.42 0 01-.343.185h-.001zm-.584-1.574a.409.409 0 01-.236-.075.426.426 0 01-.152-.2l-.398-1.072a.44.44 0 01.104-.464.414.414 0 01.298-.117.407.407 0 01.29.134.43.43 0 01.087.142l.397 1.072a.439.439 0 01-.046.395.421.421 0 01-.343.185zm-.795-2.14a.409.409 0 01-.236-.076.426.426 0 01-.153-.2l-.397-1.07a.44.44 0 01.103-.465.413.413 0 01.457-.08.417.417 0 01.219.239l.397 1.071a.438.438 0 01-.046.396.42.42 0 01-.343.185h-.001zm-.796-2.14a.408.408 0 01-.235-.076.426.426 0 01-.153-.2L18.93 9.25a.44.44 0 01.009-.328.422.422 0 01.232-.225.406.406 0 01.319.01c.1.046.18.131.219.238l.396 1.071a.439.439 0 01-.045.395.42.42 0 01-.343.186h-.002zm-.795-2.147a.408.408 0 01-.236-.076.427.427 0 01-.152-.2l-.184-.504a.438.438 0 01.104-.464.416.416 0 01.297-.116.408.408 0 01.292.133c.037.041.066.09.086.142l.186.502a.439.439 0 01-.046.396.42.42 0 01-.343.185l-.004.001z" fill="#4E4658"/><path d="M36.086 27.09c-9.964-8.984-18.708-1.186-19.957-.122a.163.163 0 00-.058.12.168.168 0 00.048.124l.126.128c8.578 8.765 18.102 1.651 19.82.234a.328.328 0 00.119-.239.336.336 0 00-.095-.25l-.003.004z" stroke="#4E4658" stroke-width=".943" stroke-miterlimit="10"/><path d="M26.122 31.617c2.3 0 4.164-1.98 4.164-4.423s-1.864-4.423-4.164-4.423-4.164 1.98-4.164 4.423 1.864 4.423 4.164 4.423z" fill="#4E4658"/><g clip-path="url(#clip0_186_522)" stroke-width=".958" stroke-linecap="round" stroke-linejoin="round"><path d="M26.216 24.607s-.454 2.704-2.183 2.704c0 0 2.183 1.023 2.183 2.788 0-1.762 1.993-2.788 1.993-2.788-1.723 0-1.993-2.704-1.993-2.704z" fill="#fff" stroke="#fff"/><path d="M26.147 26.596s-.103.752-.492.752c0 0 .492.285.492.776 0-.49.449-.776.449-.776-.389 0-.45-.752-.45-.752z" fill="#4E4658" stroke="#4E4658"/></g><defs><clipPath id="clip0_186_522"><path fill="#fff" transform="translate(23.39 22.346)" d="M0 0h5.461v8.722H0z"/></clipPath></defs></svg>